<?xml version="1.0" encoding="UTF-8"?>
<svg xmlns="http://www.w3.org/2000/svg" viewBox="0 0 1563.56 878.87">
  <defs>
    <style>
      .cls-1 {
        stroke: #c2111a;
      }

      .cls-1, .cls-2, .cls-3 {
        fill: none;
        stroke-miterlimit: 10;
        stroke-width: 6px;
      }

      .cls-2 {
        stroke: #53d914;
      }

      .cls-3 {
        stroke: #3e51ff;
      }
    </style>
  </defs>
  <g id="Layer_1" data-name="Layer 1"/>
  <g id="Layer_2" data-name="Layer 2">
    <g id="Layer_1-2" data-name="Layer 1">
      <path class="cls-1" d="M2.9,554.31C149.79,300.02,288.68,224.31,400.38,213.5c273.33-26.43,425.89,331.76,716.27,319.36,184.24-7.87,334.01-161.08,444.25-320.5"/>
      <path class="cls-3" d="M1107.9,2.92c-103.28,24.57-248.18,76.43-304,198-76.69,167.03,76.89,330.41-2,490-31.43,63.58-109.2,145.69-331.44,185"/>
      <path class="cls-2" d="M2.9,2.92C91.98,340.61,228.23,458.48,339.9,501.92c245.71,95.57,453-137.88,746-69,232.55,54.67,383.16,267.83,475,443"/>
    </g>
  </g>
</svg>