<?xml version="1.0" encoding="UTF-8"?>
<svg xmlns="http://www.w3.org/2000/svg" viewBox="0 0 841 22.72">
  <defs>
    <style>
      .cls-1 {
        fill: none;
        stroke: #231f20;
        stroke-linecap: round;
        stroke-linejoin: round;
        stroke-width: 4px;
      }
    </style>
  </defs>
  <g id="Layer_1" data-name="Layer 1"/>
  <g id="Layer_2" data-name="Layer 2">
    <g id="Layer_1-2" data-name="Layer 1">
      <path class="cls-1" d="M2,2c14.95,0,14.95,18.72,29.89,18.72S46.83,2,61.78,2s14.94,18.72,29.89,18.72S106.61,2,121.56,2s14.94,18.72,29.89,18.72,14.95-18.72,29.89-18.72,14.95,18.72,29.89,18.72,14.95-18.72,29.89-18.72,14.94,18.72,29.89,18.72,14.94-18.72,29.89-18.72,14.95,18.72,29.89,18.72,14.95-18.72,29.89-18.72,14.95,18.72,29.89,18.72,14.95-18.72,29.89-18.72,14.95,18.72,29.89,18.72,14.95-18.72,29.89-18.72,14.95,18.72,29.89,18.72,14.95-18.72,29.89-18.72,14.95,18.72,29.9,18.72,14.94-18.72,29.89-18.72,14.95,18.72,29.89,18.72,14.95-18.72,29.89-18.72,14.95,18.72,29.9,18.72,14.95-18.72,29.9-18.72,14.95,18.72,29.9,18.72,14.95-18.72,29.9-18.72,14.95,18.72,29.9,18.72,14.95-18.72,29.9-18.72"/>
    </g>
  </g>
</svg>